<svg id="logo" xmlns="http://www.w3.org/2000/svg" viewBox="0 0 300 175">
  <defs>
    <style>
      .cls-1 {
        fill: #ccbe2c;
      }

      .cls-2 {
        fill: #fff;
      }

      .cls-3 {
        fill: #1d1716;
      }
    </style>
  </defs>
  <rect id="background" class="cls-1" width="300" height="175"/>
  <polygon id="cup" class="cls-2" points="123.14 93.72 184.51 93.88 177.1 173.3 131.37 173.3 123.14 93.72"/>
  <g id="straw">
    <path class="cls-3" d="M125,19.2q2.7,11.86,5.41,23.74l4.5-5.3q-2.42-10.2-4.84-20.4Z"/>
    <path class="cls-3" d="M131.14,46.26l1.2,5.17L137,47.08c-.3-1.9-.59-3.79-.89-5.68Z"/>
    <path class="cls-3" d="M133,54.05q.42,2.69.89,5.37l4.41-4q-.42-2.74-.83-5.49Z"/>
    <path class="cls-3" d="M134.84,63.48q3.51,15,7,30.07l4.27-6Q142.48,73,138.86,58.48Z"/>
    <path class="cls-3" d="M142.86,95.38c.19,2.32.38,4.63.56,7l4.71-4.63-1-5.92Z"/>
    <path class="cls-3" d="M144.2,105.58c.31,1.74.61,3.48.92,5.22l4.75-4.85-1-5.31C147.31,102.29,145.76,103.94,144.2,105.58Z"/>
    <path class="cls-3" d="M145.06,114.64q5.33,26.24,10.63,52.46l7.3-1.4q-6-27.85-12.07-55.7Z"/>
  </g>
</svg>
